<svg width="512" height="512" viewBox="0 0 512 512" fill="none" xmlns="http://www.w3.org/2000/svg">
<rect width="512" height="512" rx="64" fill="#2563eb"/>
<path d="M256 144C274.912 144 293.074 151.743 306.666 165.334C320.257 178.926 328 197.088 328 216C328 234.912 320.257 253.074 306.666 266.666C293.074 280.257 274.912 288 256 288C237.088 288 218.926 280.257 205.334 266.666C191.743 253.074 184 234.912 184 216C184 197.088 191.743 178.926 205.334 165.334C218.926 151.743 237.088 144 256 144Z" fill="white"/>
<path d="M256 320C194.144 320 144 370.144 144 432H368C368 370.144 317.856 320 256 320Z" fill="white"/>
</svg>
